<svg xmlns="http://www.w3.org/2000/svg" xmlns:xlink="http://www.w3.org/1999/xlink" width="500" zoomAndPan="magnify" viewBox="0 0 375 374.999991" height="500" preserveAspectRatio="xMidYMid meet" version="1.0"><defs><clipPath id="e3c61f778f"><path d="M 72.496094 73.042969 L 302.5 73.042969 L 302.5 301.792969 L 72.496094 301.792969 Z M 72.496094 73.042969 " clip-rule="nonzero"/></clipPath></defs><g clip-path="url(#e3c61f778f)"><path fill="#004aad" d="M 192.902344 82.839844 L 207.394531 74.632812 C 213.234375 71.328125 220.648438 73.34375 224.007812 79.152344 L 232.351562 93.582031 C 234.539062 97.363281 238.574219 99.6875 242.9375 99.6875 L 260.285156 99.6875 C 266.585938 99.6875 271.855469 104.476562 272.453125 110.753906 L 274.148438 128.410156 C 274.53125 132.429688 276.871094 135.996094 280.402344 137.945312 L 295.835938 146.480469 C 301.746094 149.746094 303.886719 157.1875 300.617188 163.097656 L 292.113281 178.480469 C 290.144531 182.039062 290.074219 186.34375 291.925781 189.960938 L 301.15625 208.035156 C 304.15625 213.90625 301.960938 221.097656 296.195312 224.292969 L 281.808594 232.265625 C 277.921875 234.421875 275.507812 238.515625 275.507812 242.960938 L 275.507812 263.527344 C 275.507812 270.28125 270.03125 275.753906 263.28125 275.753906 L 245.992188 275.753906 C 242.210938 275.753906 238.640625 277.507812 236.324219 280.496094 L 225.09375 294.992188 C 221.746094 299.316406 215.9375 300.890625 210.863281 298.847656 L 191.925781 291.230469 C 188.734375 289.945312 185.148438 290.066406 182.050781 291.558594 C 175.703125 294.621094 169.351562 297.683594 163.007812 300.746094 C 157.386719 303.453125 150.632812 301.5 147.324219 296.210938 C 144.140625 291.125 140.957031 286.03125 137.773438 280.941406 C 135.351562 277.066406 130.972656 274.867188 126.417969 275.238281 C 122.265625 275.574219 118.113281 275.910156 113.960938 276.25 C 106.800781 276.832031 100.683594 271.144531 100.742188 263.960938 L 100.871094 248.265625 C 100.910156 243.394531 98.058594 238.964844 93.605469 236.988281 L 81.746094 231.726562 C 75.5625 228.980469 72.785156 221.738281 75.542969 215.558594 C 78.472656 209.003906 81.402344 202.453125 84.332031 195.898438 C 85.847656 192.503906 85.738281 188.601562 84.035156 185.300781 L 73.859375 165.589844 C 70.980469 160.011719 72.792969 153.15625 78.058594 149.730469 L 94.117188 139.28125 C 97.660156 136.976562 99.761719 133.003906 99.675781 128.78125 L 99.335938 112.285156 C 99.191406 105.25 104.996094 99.542969 112.03125 99.8125 L 130.375 100.519531 C 135.011719 100.699219 139.351562 98.238281 141.574219 94.164062 L 149.589844 79.5 C 152.851562 73.53125 160.359375 71.375 166.292969 74.691406 L 180.90625 82.871094 C 184.636719 84.957031 189.183594 84.945312 192.902344 82.839844 " fill-opacity="1" fill-rule="nonzero"/></g><path fill="#ffffff" d="M 131.964844 186.277344 L 145.140625 172.304688 L 174.285156 199.851562 L 229.785156 143.957031 L 243.359375 157.53125 L 173.886719 227.003906 L 131.964844 186.277344 " fill-opacity="1" fill-rule="nonzero"/></svg>